<mxfile host="app.diagrams.net" modified="2022-10-13T14:51:16.736Z" agent="5.0 (Windows NT 10.0; Win64; x64) AppleWebKit/537.36 (KHTML, like Gecko) Chrome/105.0.0.0 Safari/537.36" etag="iaEn80oiahS7Pw1fT152" version="20.4.0" type="github">
  <diagram id="aEpbRju676WB0mRRCltv" name="Page-1">
    <mxGraphModel dx="903" dy="469" grid="1" gridSize="10" guides="1" tooltips="1" connect="1" arrows="1" fold="1" page="1" pageScale="1" pageWidth="827" pageHeight="1169" math="0" shadow="0">
      <root>
        <mxCell id="0" />
        <mxCell id="1" parent="0" />
        <mxCell id="iAs89f6UKUQ9juESuoWj-1" value="Model" style="rounded=0;whiteSpace=wrap;html=1;" parent="1" vertex="1">
          <mxGeometry x="110" y="110" width="160" height="90" as="geometry" />
        </mxCell>
        <mxCell id="iAs89f6UKUQ9juESuoWj-2" value="Controller" style="ellipse;whiteSpace=wrap;html=1;" parent="1" vertex="1">
          <mxGeometry x="370" y="300" width="160" height="110" as="geometry" />
        </mxCell>
        <mxCell id="akZmUbAeHJxJS1-U2V-f-5" style="edgeStyle=orthogonalEdgeStyle;rounded=0;orthogonalLoop=1;jettySize=auto;html=1;" edge="1" parent="1" source="iAs89f6UKUQ9juESuoWj-3" target="akZmUbAeHJxJS1-U2V-f-1">
          <mxGeometry relative="1" as="geometry" />
        </mxCell>
        <mxCell id="iAs89f6UKUQ9juESuoWj-3" value="View" style="triangle;whiteSpace=wrap;html=1;align=center;" parent="1" vertex="1">
          <mxGeometry x="650" y="100" width="130" height="110" as="geometry" />
        </mxCell>
        <mxCell id="iAs89f6UKUQ9juESuoWj-4" value="&lt;b&gt;message.rb&lt;/b&gt;" style="text;html=1;strokeColor=none;fillColor=none;align=center;verticalAlign=middle;whiteSpace=wrap;rounded=0;" parent="1" vertex="1">
          <mxGeometry x="160" y="120" width="60" height="30" as="geometry" />
        </mxCell>
        <mxCell id="iAs89f6UKUQ9juESuoWj-5" value="&lt;b&gt;messages_controller.rb&lt;/b&gt;" style="text;html=1;strokeColor=none;fillColor=none;align=center;verticalAlign=middle;whiteSpace=wrap;rounded=0;" parent="1" vertex="1">
          <mxGeometry x="420" y="320" width="60" height="30" as="geometry" />
        </mxCell>
        <mxCell id="iAs89f6UKUQ9juESuoWj-6" value="&lt;b&gt;chatroom.coffee&lt;/b&gt;" style="text;html=1;strokeColor=none;fillColor=none;align=center;verticalAlign=middle;whiteSpace=wrap;rounded=0;" parent="1" vertex="1">
          <mxGeometry x="685" y="80" width="60" height="30" as="geometry" />
        </mxCell>
        <mxCell id="iAs89f6UKUQ9juESuoWj-7" value="Partial" style="rhombus;whiteSpace=wrap;html=1;" parent="1" vertex="1">
          <mxGeometry x="280" y="425" width="80" height="80" as="geometry" />
        </mxCell>
        <mxCell id="iAs89f6UKUQ9juESuoWj-10" value="" style="endArrow=classic;html=1;rounded=0;" parent="1" edge="1">
          <mxGeometry width="50" height="50" relative="1" as="geometry">
            <mxPoint x="520" y="330" as="sourcePoint" />
            <mxPoint x="650" y="200" as="targetPoint" />
          </mxGeometry>
        </mxCell>
        <mxCell id="iAs89f6UKUQ9juESuoWj-12" value="" style="endArrow=classic;html=1;rounded=0;entryX=1;entryY=1;entryDx=0;entryDy=0;exitX=0;exitY=0;exitDx=0;exitDy=0;" parent="1" source="iAs89f6UKUQ9juESuoWj-2" target="iAs89f6UKUQ9juESuoWj-1" edge="1">
          <mxGeometry width="50" height="50" relative="1" as="geometry">
            <mxPoint x="380" y="310" as="sourcePoint" />
            <mxPoint x="320" y="247.5" as="targetPoint" />
          </mxGeometry>
        </mxCell>
        <mxCell id="iAs89f6UKUQ9juESuoWj-13" value="&lt;ul&gt;&lt;li&gt;User sends a message&lt;/li&gt;&lt;/ul&gt;" style="text;html=1;strokeColor=none;fillColor=none;align=left;verticalAlign=middle;whiteSpace=wrap;rounded=0;" parent="1" vertex="1">
          <mxGeometry x="340" y="185" width="120" height="30" as="geometry" />
        </mxCell>
        <mxCell id="iAs89f6UKUQ9juESuoWj-14" value="&lt;ul&gt;&lt;li style=&quot;text-align: left;&quot;&gt;Controller receives message&lt;/li&gt;&lt;li style=&quot;text-align: left;&quot;&gt;Message is broadcasted to channel with partial&lt;/li&gt;&lt;/ul&gt;" style="text;html=1;strokeColor=none;fillColor=none;align=center;verticalAlign=middle;whiteSpace=wrap;rounded=0;" parent="1" vertex="1">
          <mxGeometry x="370" y="440" width="150" height="30" as="geometry" />
        </mxCell>
        <mxCell id="iAs89f6UKUQ9juESuoWj-15" value="&lt;ul&gt;&lt;li style=&quot;text-align: left;&quot;&gt;Channel receives message&lt;/li&gt;&lt;li style=&quot;text-align: left;&quot;&gt;Message is appended to chatroom&lt;/li&gt;&lt;/ul&gt;" style="text;html=1;strokeColor=none;fillColor=none;align=center;verticalAlign=middle;whiteSpace=wrap;rounded=0;" parent="1" vertex="1">
          <mxGeometry x="640" y="230" width="150" height="30" as="geometry" />
        </mxCell>
        <mxCell id="akZmUbAeHJxJS1-U2V-f-6" style="edgeStyle=orthogonalEdgeStyle;rounded=0;orthogonalLoop=1;jettySize=auto;html=1;entryX=0.565;entryY=0.005;entryDx=0;entryDy=0;entryPerimeter=0;" edge="1" parent="1" source="akZmUbAeHJxJS1-U2V-f-1" target="iAs89f6UKUQ9juESuoWj-2">
          <mxGeometry relative="1" as="geometry">
            <mxPoint x="460" y="260" as="targetPoint" />
          </mxGeometry>
        </mxCell>
        <mxCell id="akZmUbAeHJxJS1-U2V-f-1" value="Chatroom" style="shape=parallelogram;perimeter=parallelogramPerimeter;whiteSpace=wrap;html=1;fixedSize=1;" vertex="1" parent="1">
          <mxGeometry x="400" y="125" width="120" height="60" as="geometry" />
        </mxCell>
        <mxCell id="akZmUbAeHJxJS1-U2V-f-4" value="" style="endArrow=classic;html=1;rounded=0;" edge="1" parent="1">
          <mxGeometry width="50" height="50" relative="1" as="geometry">
            <mxPoint x="340" y="445" as="sourcePoint" />
            <mxPoint x="390" y="395" as="targetPoint" />
          </mxGeometry>
        </mxCell>
        <mxCell id="iAs89f6UKUQ9juESuoWj-11" value="&lt;b&gt;index.html.erb&lt;/b&gt;" style="text;html=1;strokeColor=none;fillColor=none;align=center;verticalAlign=middle;whiteSpace=wrap;rounded=0;" parent="1" vertex="1">
          <mxGeometry x="440" y="125" width="60" height="30" as="geometry" />
        </mxCell>
        <mxCell id="akZmUbAeHJxJS1-U2V-f-8" value="&lt;b&gt;&lt;font style=&quot;font-size: 15px;&quot;&gt;ChatRoom Flow&lt;/font&gt;&lt;/b&gt;" style="text;html=1;strokeColor=none;fillColor=none;align=center;verticalAlign=middle;whiteSpace=wrap;rounded=0;" vertex="1" parent="1">
          <mxGeometry x="380" y="50" width="140" height="30" as="geometry" />
        </mxCell>
        <mxCell id="akZmUbAeHJxJS1-U2V-f-9" value="&lt;ul&gt;&lt;li&gt;Message appears in chatroom&lt;/li&gt;&lt;/ul&gt;" style="text;html=1;strokeColor=none;fillColor=none;align=left;verticalAlign=middle;whiteSpace=wrap;rounded=0;" vertex="1" parent="1">
          <mxGeometry x="490" y="110" width="120" height="30" as="geometry" />
        </mxCell>
      </root>
    </mxGraphModel>
  </diagram>
</mxfile>
